{
  "accessors": [
    {
      "bufferView": 2,
      "componentType": 5126,
      "count": 11174,
      "max": [
        0.8699377179145813,
        0.8757054209709167,
        0.8361057639122009
      ],
      "min": [
        -0.8699376583099365,
        -0.8757054209709167,
        -0.8361057639122009
      ],
      "type": "VEC3"
    },
    {
      "bufferView": 2,
      "byteOffset": 134088,
      "componentType": 5126,
      "count": 11174,
      "max": [
        0.9994747638702393,
        1.0,
        0.996629536151886
      ],
      "min": [
        -0.9994747638702393,
        -1.0,
        -0.996629536151886
      ],
      "type": "VEC3"
    },
    {
      "bufferView": 1,
      "componentType": 5126,
      "count": 11174,
      "max": [
        0.9697393774986267,
        0.419967919588089
      ],
      "min": [
        0.030261099338531494,
        0.05241413041949272
      ],
      "type": "VEC2"
    },
    {
      "bufferView": 0,
      "componentType": 5125,
      "count": 57600,
      "type": "SCALAR"
    },
    {
      "bufferView": 2,
      "byteOffset": 268176,
      "componentType": 5126,
      "count": 5669,
      "max": [
        0.86041259765625,
        0.8577160835266113,
        0.8709703087806702
      ],
      "min": [
        -0.86041259765625,
        -0.8577160835266113,
        -0.8709703087806702
      ],
      "type": "VEC3"
    },
    {
      "bufferView": 2,
      "byteOffset": 336204,
      "componentType": 5126,
      "count": 5669,
      "max": [
        0.9997259974479675,
        0.9995510578155518,
        1.0
      ],
      "min": [
        -0.9997259974479675,
        -0.9995505213737488,
        -1.0
      ],
      "type": "VEC3"
    },
    {
      "bufferView": 1,
      "byteOffset": 89392,
      "componentType": 5126,
      "count": 5669,
      "max": [
        0.9697390198707581,
        0.419967919588089
      ],
      "min": [
        0.03026149980723858,
        0.05241413787007332
      ],
      "type": "VEC2"
    },
    {
      "bufferView": 0,
      "byteOffset": 230400,
      "componentType": 5125,
      "count": 28800,
      "type": "SCALAR"
    }
  ],
  "asset": {
    "extras": {
      "author": "radioactivediorite (https://sketchfab.com/radioactivediorite)",
      "license": "CC-BY-4.0 (http://creativecommons.org/licenses/by/4.0/)",
      "source": "https://sketchfab.com/3d-models/high-quality-soccer-ball-model-dea91d3a60b54bd49981d29992f3120c",
      "title": "HIGH QUALITY SOCCER BALL MODEL"
    },
    "generator": "Sketchfab-16.65.0",
    "version": "2.0"
  },
  "bufferViews": [
    {
      "buffer": 0,
      "byteLength": 345600,
      "name": "floatBufferViews",
      "target": 34963
    },
    {
      "buffer": 0,
      "byteLength": 134744,
      "byteOffset": 345600,
      "byteStride": 8,
      "name": "floatBufferViews",
      "target": 34962
    },
    {
      "buffer": 0,
      "byteLength": 404232,
      "byteOffset": 480344,
      "byteStride": 12,
      "name": "floatBufferViews",
      "target": 34962
    }
  ],
  "buffers": [
    {
      "byteLength": 884576,
      "uri": "scene.bin"
    }
  ],
  "extensionsUsed": [
    "KHR_materials_emissive_strength",
    "KHR_materials_specular"
  ],
  "materials": [
    {
      "doubleSided": true,
      "name": "Material.001",
      "pbrMetallicRoughness": {
        "baseColorFactor": [
          0.8,
          0.8,
          0.8,
          1.0
        ],
        "metallicFactor": 0.0,
        "roughnessFactor": 0.8211145618000169
      }
    },
    {
      "doubleSided": true,
      "extensions": {
        "KHR_materials_emissive_strength": {
          "emissiveStrength": 1.2115652543827202
        },
        "KHR_materials_specular": {
          "specularColorFactor": [
            1.0,
            1.0,
            1.0
          ],
          "specularFactor": 0.6616543907753544
        }
      },
      "name": "Material.002",
      "pbrMetallicRoughness": {
        "baseColorFactor": [
          0.0,
          0.0,
          0.0,
          1.0
        ],
        "metallicFactor": 0.0,
        "roughnessFactor": 0.5205359009113026
      }
    }
  ],
  "meshes": [
    {
      "name": "Icosphere_Material.001_0",
      "primitives": [
        {
          "attributes": {
            "NORMAL": 1,
            "POSITION": 0,
            "TEXCOORD_0": 2
          },
          "indices": 3,
          "material": 0,
          "mode": 4
        }
      ]
    },
    {
      "name": "Icosphere_Material.002_0",
      "primitives": [
        {
          "attributes": {
            "NORMAL": 5,
            "POSITION": 4,
            "TEXCOORD_0": 6
          },
          "indices": 7,
          "material": 1,
          "mode": 4
        }
      ]
    }
  ],
  "nodes": [
    {
      "children": [
        1
      ],
      "matrix": [
        0.26822635531425476,
        0.0,
        0.0,
        0.0,
        0.0,
        5.955821509623477e-17,
        -0.26822635531425476,
        0.0,
        0.0,
        0.26822635531425476,
        5.955821509623477e-17,
        0.0,
        0.0,
        0.0,
        0.0,
        1.0
      ],
      "name": "Sketchfab_model"
    },
    {
      "children": [
        2
      ],
      "matrix": [
        0.009999999776482582,
        0.0,
        0.0,
        0.0,
        0.0,
        0.0,
        0.009999999776482582,
        0.0,
        0.0,
        -0.009999999776482582,
        0.0,
        0.0,
        0.0,
        0.0,
        0.0,
        1.0
      ],
      "name": "5b0bb96b35c14e63b5c994f61affc244.fbx"
    },
    {
      "children": [
        3,
        6,
        8
      ],
      "name": "RootNode"
    },
    {
      "children": [
        4
      ],
      "matrix": [
        -29.08647719990347,
        -5.518906457566863,
        -95.51711910171437,
        0.0,
        56.63930913109449,
        79.46723428563203,
        -21.83912397841966,
        0.0,
        77.11008775993375,
        -60.45246356562044,
        -19.98834696773717,
        0.0,
        407.6245422363281,
        590.38623046875,
        -100.54539489746094,
        1.0
      ],
      "name": "Light"
    },
    {
      "children": [
        5
      ],
      "matrix": [
        1.0,
        0.0,
        0.0,
        0.0,
        0.0,
        2.220446049250313e-16,
        1.0,
        0.0,
        0.0,
        -1.0,
        2.220446049250313e-16,
        0.0,
        0.0,
        0.0,
        0.0,
        1.0
      ],
      "name": "Object_4"
    },
    {
      "name": "Object_5"
    },
    {
      "children": [
        7
      ],
      "matrix": [
        -65.15581009765468,
        -44.527143038140764,
        -61.41704928909654,
        0.0,
        -32.40135466989878,
        89.5395708958271,
        -30.542085476036902,
        0.0,
        68.59207001076176,
        1.2755314797120858e-05,
        -72.76761921184276,
        0.0,
        735.88916015625,
        495.8309326171875,
        692.5791015625,
        1.0
      ],
      "name": "Camera"
    },
    {
      "name": "Object_7"
    },
    {
      "children": [
        9,
        10
      ],
      "matrix": [
        100.0,
        0.0,
        0.0,
        0.0,
        0.0,
        -1.629206793918314e-05,
        -99.99999999999868,
        0.0,
        0.0,
        99.99999999999868,
        -1.629206793918314e-05,
        0.0,
        0.0,
        87.73431396484375,
        0.0,
        1.0
      ],
      "name": "Icosphere"
    },
    {
      "mesh": 0,
      "name": "Icosphere_Material.001_0"
    },
    {
      "mesh": 1,
      "name": "Icosphere_Material.002_0"
    }
  ],
  "scene": 0,
  "scenes": [
    {
      "name": "Sketchfab_Scene",
      "nodes": [
        0
      ]
    }
  ]
}
